<svg xmlns="http://www.w3.org/2000/svg" viewBox="0 0 120 120">
  <!-- 背景圆 -->
  <circle cx="60" cy="60" r="60" fill="#FCE4EC"/>
  <!-- 长发 -->
  <path d="M25 55c0-22 14-38 35-38s35 16 35 38c0 6-1 15-3 22-1-8-2-14-3-18 2-18-10-32-29-32S33 37 35 55c-1 4-2 10-3 18-2-7-3-12-3-18z" fill="#5D4037"/>
  <path d="M28 75c-1 10 0 18 4 25 1-8 3-16 4-20-3-1-6-3-8-5z" fill="#5D4037"/>
  <path d="M92 75c1 10 0 18-4 25-1-8-3-16-4-20 3-1 6-3 8-5z" fill="#5D4037"/>
  <!-- 耳朵 -->
  <ellipse cx="32" cy="64" rx="5" ry="7" fill="#FFCC80"/>
  <ellipse cx="88" cy="64" rx="5" ry="7" fill="#FFCC80"/>
  <!-- 脸部 -->
  <ellipse cx="60" cy="65" rx="27" ry="29" fill="#FFE0B2"/>
  <!-- 刘海 -->
  <path d="M35 52c1-12 10-22 25-22s24 10 25 22c0 0-4-14-25-14S35 52 35 52z" fill="#5D4037"/>
  <path d="M35 52c0-2 2-6 5-10-2 4-3 8-2 12-1-1-2-1-3-2z" fill="#4E342E"/>
  <!-- 眉毛 -->
  <path d="M43 57c2-2 6-3 8-1" stroke="#795548" stroke-width="1.5" fill="none" stroke-linecap="round"/>
  <path d="M77 57c-2-2-6-3-8-1" stroke="#795548" stroke-width="1.5" fill="none" stroke-linecap="round"/>
  <!-- 眼睛（大而灵动） -->
  <ellipse cx="48" cy="65" rx="5.5" ry="6" fill="#fff"/>
  <ellipse cx="72" cy="65" rx="5.5" ry="6" fill="#fff"/>
  <circle cx="49" cy="64" r="3.8" fill="#333"/>
  <circle cx="73" cy="64" r="3.8" fill="#333"/>
  <circle cx="50.5" cy="62" r="1.5" fill="#fff"/>
  <circle cx="74.5" cy="62" r="1.5" fill="#fff"/>
  <!-- 睫毛 -->
  <path d="M42 60c-1-2 0-3 1-4" stroke="#333" stroke-width="1" fill="none" stroke-linecap="round"/>
  <path d="M78 60c1-2 0-3-1-4" stroke="#333" stroke-width="1" fill="none" stroke-linecap="round"/>
  <!-- 鼻子 -->
  <ellipse cx="60" cy="73" rx="1.8" ry="1.3" fill="#FFB74D" opacity="0.5"/>
  <!-- 嘴巴（甜美微笑） -->
  <path d="M53 80c2 4 12 4 14 0" stroke="#EC407A" stroke-width="2" fill="none" stroke-linecap="round"/>
  <!-- 腮红 -->
  <ellipse cx="41" cy="76" rx="6" ry="3.5" fill="#F48FB1" opacity="0.4"/>
  <ellipse cx="79" cy="76" rx="6" ry="3.5" fill="#F48FB1" opacity="0.4"/>
  <!-- 头饰（蝴蝶结） -->
  <path d="M78 42c4-6 12-6 12 0s-8 6-12 0z" fill="#EC407A"/>
  <path d="M78 42c-4-6-12-6-12 0s8 6 12 0z" fill="#F06292"/>
  <circle cx="78" cy="42" r="2.5" fill="#AD1457"/>
  <!-- 衣领 -->
  <path d="M38 94c4 6 14 10 22 10s18-4 22-10c-4 2-10 3-22 3s-18-1-22-3z" fill="#F48FB1"/>
  <path d="M34 98c2 6 12 14 26 14s24-8 26-14c-6 8-14 10-26 10s-20-2-26-10z" fill="#EC407A"/>
</svg>
