<svg xmlns="http://www.w3.org/2000/svg" viewBox="0 0 120 120">
  <!-- 背景圆 -->
  <circle cx="60" cy="60" r="60" fill="#E3F2FD"/>
  <!-- 头发 -->
  <path d="M30 52c0-20 12-34 30-34s30 14 30 34c0 2-1 4-2 5 1-18-10-31-28-31S33 39 34 57c-2-1-4-3-4-5z" fill="#5D4037"/>
  <path d="M32 52c2-16 12-28 28-28s26 12 28 28c0 0 2-2 2-5 0-20-12-34-30-34S30 32 30 52c0 3 1 5 2 5z" fill="#6D4C41"/>
  <!-- 耳朵 -->
  <ellipse cx="30" cy="62" rx="6" ry="8" fill="#FFCC80"/>
  <ellipse cx="90" cy="62" rx="6" ry="8" fill="#FFCC80"/>
  <!-- 脸部 -->
  <ellipse cx="60" cy="65" rx="28" ry="30" fill="#FFE0B2"/>
  <!-- 刘海 -->
  <path d="M34 50c2-14 12-24 26-24s24 10 26 24c0 0-6-16-26-16S34 50 34 50z" fill="#5D4037"/>
  <!-- 眉毛 -->
  <path d="M42 56c2-3 6-4 9-2" stroke="#5D4037" stroke-width="2" fill="none" stroke-linecap="round"/>
  <path d="M78 56c-2-3-6-4-9-2" stroke="#5D4037" stroke-width="2" fill="none" stroke-linecap="round"/>
  <!-- 眼睛 -->
  <ellipse cx="48" cy="64" rx="5" ry="5.5" fill="#fff"/>
  <ellipse cx="72" cy="64" rx="5" ry="5.5" fill="#fff"/>
  <circle cx="49" cy="63" r="3.5" fill="#333"/>
  <circle cx="73" cy="63" r="3.5" fill="#333"/>
  <circle cx="50.5" cy="61.5" r="1.2" fill="#fff"/>
  <circle cx="74.5" cy="61.5" r="1.2" fill="#fff"/>
  <!-- 鼻子 -->
  <ellipse cx="60" cy="72" rx="2" ry="1.5" fill="#FFB74D" opacity="0.6"/>
  <!-- 嘴巴（微笑） -->
  <path d="M52 79c3 5 13 5 16 0" stroke="#E57373" stroke-width="2.2" fill="none" stroke-linecap="round"/>
  <!-- 腮红 -->
  <ellipse cx="40" cy="75" rx="6" ry="3.5" fill="#FFAB91" opacity="0.45"/>
  <ellipse cx="80" cy="75" rx="6" ry="3.5" fill="#FFAB91" opacity="0.45"/>
  <!-- 衣领 -->
  <path d="M38 94c4 6 14 10 22 10s18-4 22-10c-4 2-10 3-22 3s-18-1-22-3z" fill="#42A5F5"/>
  <path d="M34 98c2 6 12 14 26 14s24-8 26-14c-6 8-14 10-26 10s-20-2-26-10z" fill="#1E88E5"/>
</svg>
